<svg xmlns="http://www.w3.org/2000/svg" width="32" height="32" fill="none" viewBox="0 0 32 32"><g clip-path="url(#a)"><rect width="32" height="32" fill="#fff" rx="6"/><path fill="#004371" d="M12.555 18.508V14.61q2.556-.861 3.623-2.091 1.08-1.245 1.08-2.653 0-.957-.41-1.435-.398-.492-1.08-.493-1.6 0-1.6 2.215H7.742q0-1.695.93-3.13.943-1.437 2.775-2.311 1.845-.875 4.54-.875 2.596 0 4.443.82 1.845.807 2.83 2.242.998 1.422.998 3.254 0 2.202-1.531 3.787-1.518 1.573-4.95 2.68v1.887zm2.611 7.861q-1.736 0-2.789-.943-1.053-.957-1.053-2.543 0-1.573 1.04-2.488 1.038-.93 2.802-.93t2.803.93q1.038.916 1.039 2.488 0 1.586-1.053 2.543-1.039.943-2.789.943"/><path fill="#ffad09" d="M12.805 17.508V13.61q2.556-.861 3.623-2.091 1.08-1.245 1.08-2.653 0-.957-.41-1.435-.398-.492-1.08-.493-1.6 0-1.6 2.215H7.992q0-1.695.93-3.13.943-1.437 2.775-2.311 1.845-.875 4.54-.875 2.596 0 4.443.82 1.845.807 2.83 2.242.998 1.422.998 3.254 0 2.202-1.531 3.787-1.518 1.573-4.95 2.68v1.887zm2.611 7.861q-1.736 0-2.789-.943-1.053-.957-1.053-2.543 0-1.573 1.04-2.488 1.038-.93 2.802-.93t2.803.93q1.038.916 1.039 2.488 0 1.586-1.053 2.543-1.039.943-2.789.943"/></g><defs><clipPath id="a"><rect width="32" height="32" fill="#fff" rx="6"/></clipPath></defs></svg>